<svg viewBox="0 0 25 25" xmlns="http://www.w3.org/2000/svg" fill-rule="evenodd" clip-rule="evenodd" stroke-linejoin="round" stroke-miterlimit="2"><path d="M3.408.556l21.024 21.202-2.84 2.686L.569 3.242 3.408.556z" fill="#4c4c4c" fill-rule="nonzero"/><path d="M23.864 21.74l-2.272 2.15L1.136 3.26l2.272-2.15 20.456 20.63m1.136.035L3.408 0 0 3.225 21.592 25 25 21.775z" fill="#eed900" fill-rule="nonzero"/><path d="M.568 21.757L21.592.555l2.84 2.688L3.408 24.445l-2.84-2.688z" fill="#4c4c4c" fill-rule="nonzero"/><path d="M21.592 1.11l2.272 2.15L3.408 23.89l-2.272-2.15L21.592 1.11m0-1.11L0 21.775 3.408 25 25 3.225 21.592 0z" fill="#eed900" fill-rule="nonzero"/><path d="M9.695 7.45L7.46 9.64l6.129 6.178 2.285-2.135-6.18-6.233z" fill="#4c4c4c"/></svg>