<?xml version="1.0" encoding="UTF-8" standalone="no"?>
<!DOCTYPE svg PUBLIC "-//W3C//DTD SVG 1.1//EN" "http://www.w3.org/Graphics/SVG/1.1/DTD/svg11.dtd">
<svg width="100%" height="100%" viewBox="0 0 38 26" version="1.1" xmlns="http://www.w3.org/2000/svg" xmlns:xlink="http://www.w3.org/1999/xlink" xml:space="preserve" xmlns:serif="http://www.serif.com/" style="fill-rule:evenodd;clip-rule:evenodd;stroke-linejoin:round;stroke-miterlimit:2;">
    <g>
        <rect x="0.5" y="10.5" width="37" height="5" style="fill:rgb(76,76,76);fill-rule:nonzero;"/>
        <path d="M37,11L37,15L1,15L1,11L37,11M38,10L0,10L0,16L38,16L38,10Z" style="fill:rgb(238,217,0);fill-rule:nonzero;"/>
        <rect x="0.5" y="0.5" width="37" height="5" style="fill:rgb(76,76,76);fill-rule:nonzero;"/>
        <path d="M37,1L37,5L1,5L1,1L37,1M38,0L0,0L0,6L38,6L38,0Z" style="fill:rgb(238,217,0);fill-rule:nonzero;"/>
        <rect x="0.5" y="20.5" width="37" height="5" style="fill:rgb(76,76,76);fill-rule:nonzero;"/>
        <path d="M37,21L37,25L1,25L1,21L37,21M38,20L0,20L0,26L38,26L38,20Z" style="fill:rgb(238,217,0);fill-rule:nonzero;"/>
    </g>
</svg>
